<svg id="Group_25" data-name="Group 25" xmlns="http://www.w3.org/2000/svg" xmlns:xlink="http://www.w3.org/1999/xlink" width="143.73" height="120.208" viewBox="0 0 143.73 120.208">
  <defs>
    <clipPath id="clip-path">
      <path id="Path_9" data-name="Path 9" d="M0,0H143.73V120.208H0Z" transform="translate(0 0)" fill="#55aee0"/>
    </clipPath>
  </defs>
  <g id="Mask_Group_1" data-name="Mask Group 1" clip-path="url(#clip-path)">
    <path id="Path_5" data-name="Path 5" d="M50.658,55.709c0-14.661-.03-29.323.015-43.984C50.7,3.811,54.419.1,62.292.038q8.5-.07,16.994,0c7.558.077,11.388,3.841,11.4,11.405q.066,44.733.024,89.468c0,2.533.283,5.48-3.359,5.475-3.717,0-3.309-3.142-3.314-5.55Q83.964,62.6,84,24.367c0-4.165-.075-8.331-.015-12.5.051-3.558-1.613-5.2-5.154-5.152-4.664.059-9.33,0-14,.024-7.02.044-7.442.429-7.448,7.323q-.038,42.235-.033,84.469c0,1.664.3,3.5-.3,4.937-.511,1.222-2.18,2.8-3.227,2.728-1.11-.082-2.363-1.788-3.035-3.058-.486-.918-.136-2.284-.136-3.45q0-21.992,0-43.984" fill="#8ec63d"/>
    <path id="Path_6" data-name="Path 6" d="M71.121,120.073H5.136c-1,0-2.186.345-2.961-.073-.167-.09-.331-.183-.494-.28a3.44,3.44,0,0,1-.02-5.9c.206-.125.413-.246.623-.363.641-.356,1.635-.084,2.468-.084l132.077,0c.491,0,1.293.013,1.783.033,2.4.1,5.2-.043,5.116,3.387-.084,3.5-3.073,3.281-5.622,3.28q-33.492-.01-66.985,0" fill="#55aee0"/>
    <path id="Path_7" data-name="Path 7" d="M97.233,75.828c0-8-.083-15.993.023-23.988.109-8.158,3.884-11.775,12.093-11.811,5.664-.025,11.329-.059,16.992.017,6.654.089,10.723,3.39,10.824,9.831.277,17.486.2,34.979.005,52.467a1.9,1.9,0,0,1-.26.883,3.28,3.28,0,0,1-5.561.11,2.756,2.756,0,0,1-.541-1.452c-.238-15.989-.143-31.983-.153-47.975,0-6.627-.483-7.114-7.043-7.163-4.331-.032-8.662-.058-12.993-.017-5.952.056-6.461.561-6.473,6.693q-.045,22.488-.015,44.978c0,1.332.38,2.868-.151,3.948a8.838,8.838,0,0,1-1.3,1.868,2.8,2.8,0,0,1-4.155.066,3.345,3.345,0,0,1-1.1-1.974c-.3-8.819-.151-17.652-.151-26.481h-.035" fill="#55aee0"/>
    <path id="Path_8" data-name="Path 8" d="M4.012,82.946c0-6.156-.153-12.317.044-18.467C4.3,57.048,7.782,53.628,15.272,53.421c5.985-.166,11.983-.173,17.966.035,7.128.247,10.712,3.79,10.821,10.981.187,12.309.2,24.627-.078,36.932a2.508,2.508,0,0,1-.137.742,3.371,3.371,0,0,1-6.311,0,2.52,2.52,0,0,1-.136-.734c-.3-11.639-.284-23.291-.114-34.936.067-4.582-1.3-6.806-6.305-6.446a148.528,148.528,0,0,1-14.967.043c-3.842-.112-5.378,1.528-5.343,5.353.108,11.812.041,23.626.033,35.439,0,2.5.372,5.467-3.282,5.539-3.752.073-3.344-3.047-3.381-5.457-.092-5.989-.03-11.979-.026-17.969" fill="#55aee0"/>
  </g>
</svg>
