<svg xmlns="http://www.w3.org/2000/svg" xmlns:xlink="http://www.w3.org/1999/xlink" width="187.6" height="112.556" viewBox="0 0 187.6 112.556">
  <defs>
    <clipPath id="clip-path">
      <rect id="Rectangle_10" data-name="Rectangle 10" width="187.6" height="112.556" fill="#8ec63d"/>
    </clipPath>
  </defs>
  <g id="Group_4" data-name="Group 4" transform="translate(-248 -557)">
    <g id="Group_3" data-name="Group 3" transform="translate(248 557)">
      <g id="Group_2" data-name="Group 2" transform="translate(0 0)" clip-path="url(#clip-path)">
        <path id="Path_1" data-name="Path 1" d="M0,96.722a15.388,15.388,0,0,1,21.356-14.6,3.085,3.085,0,0,0,4-.931Q33.918,72.151,42.677,63.3c1.243-1.256,1.4-2.159.513-3.759-3.415-6.165-2.727-12.618,1.654-17.714A15.091,15.091,0,0,1,61.32,37.287c6.419,2.206,10.32,7.648,10.8,14.6a4.92,4.92,0,0,0,2,3.362q14.093,8.659,28.4,16.963A3.624,3.624,0,0,0,105.728,72a16.278,16.278,0,0,1,13.885-2.742,3.788,3.788,0,0,0,3.165-.823Q140.371,47.255,157.7,25.855c.612-.756.552-2.519.148-3.558-3.619-9.3.994-19.143,10.319-21.751A15.174,15.174,0,0,1,184.807,6.89a15.831,15.831,0,0,1-.3,18.378c-3.983,5.448-10.746,7.985-16.789,5.7-2.746-1.04-4.1-.465-5.8,1.647Q145.8,52.538,129.43,72.264c-1.346,1.626-1.694,2.763-.571,4.8a15.8,15.8,0,0,1-2.8,18.9,15.3,15.3,0,0,1-17.587,2.864,15.849,15.849,0,0,1-8.369-16.895,2.734,2.734,0,0,0-1.55-3.279Q84.68,70.482,70.9,62.143c-1.352-.818-2.135-.683-3.235.435-4.335,4.409-9.54,5.736-15.575,4.269a3.992,3.992,0,0,0-3.205.9C42.615,74.035,36.514,80.5,30.25,86.8c-1.335,1.344-1.023,2.378-.476,3.872,2.412,6.577,1.287,12.6-3.714,17.526-4.514,4.447-10.052,5.378-16,3.3S.006,103.264,0,96.722m23.427.118a8.241,8.241,0,0,0-7.857-8.515c-4.337-.088-8.041,3.76-8.035,8.344a8.121,8.121,0,0,0,7.718,8.319,8.113,8.113,0,0,0,8.175-8.148m148.8-89.276a8.1,8.1,0,0,0-8.1,8.215,7.955,7.955,0,1,0,15.895.348,8.184,8.184,0,0,0-7.79-8.563M123.182,84.443a7.866,7.866,0,0,0-8.067-8.143,8.02,8.02,0,0,0-7.745,8.23,8.15,8.15,0,0,0,7.984,8.359c4.454-.038,7.865-3.719,7.828-8.446M56.494,44.033a7.834,7.834,0,0,0-7.875,7.7,7.984,7.984,0,0,0,7.84,8.106,7.9,7.9,0,0,0,8.027-7.869,8.027,8.027,0,0,0-7.992-7.939" transform="translate(0 0)" fill="#8ec63d"/>
      </g>
    </g>
    <ellipse id="Ellipse_4" data-name="Ellipse 4" cx="5.613" cy="6.315" rx="5.613" ry="6.315" transform="translate(298.532 602.186)" fill="#55aee0"/>
    <ellipse id="Ellipse_7" data-name="Ellipse 7" cx="5.613" cy="6.315" rx="5.613" ry="6.315" transform="translate(415.006 565.701)" fill="#55aee0"/>
    <circle id="Ellipse_5" data-name="Ellipse 5" cx="5.613" cy="5.613" r="5.613" transform="translate(257.836 648.495)" fill="#55aee0"/>
    <circle id="Ellipse_6" data-name="Ellipse 6" cx="5.613" cy="5.613" r="5.613" transform="translate(357.471 635.866)" fill="#55aee0"/>
  </g>
</svg>
