<svg xmlns="http://www.w3.org/2000/svg" xmlns:xlink="http://www.w3.org/1999/xlink" width="60" height="58.518" viewBox="0 0 60 58.518">
  <defs>
    <clipPath id="clip-path">
      <rect id="Rectangle_66" data-name="Rectangle 66" width="60" height="58.518" fill="none"/>
    </clipPath>
  </defs>
  <g id="Group_72" data-name="Group 72" transform="translate(0 0)">
    <g id="Group_71" data-name="Group 71" transform="translate(0 0)" clip-path="url(#clip-path)">
      <path id="Path_38" data-name="Path 38" d="M11.819,49.665V48.519q0-22.517,0-45.035a8.311,8.311,0,0,1,.064-1.377A2.4,2.4,0,0,1,14.35,0,2.472,2.472,0,0,1,16.744,2.32c.04.458.025.921.025,1.382q0,22.419,0,44.837v1.455c.478-.447.732-.672.972-.91,2.167-2.162,4.313-4.346,6.5-6.485a2.442,2.442,0,0,1,4.177.786,2.345,2.345,0,0,1-.558,2.56q-5.884,5.918-11.8,11.8a2.421,2.421,0,0,1-3.552,0Q6.578,51.871.716,45.933a2.46,2.46,0,0,1,.007-3.475,2.541,2.541,0,0,1,3.558.085c2.209,2.167,4.385,4.367,6.576,6.55.228.228.47.442.706.661l.255-.09" transform="translate(0 0)" fill="#399fd7"/>
      <path id="Path_39" data-name="Path 39" d="M37.306,30.607q-8.1,0-16.191,0a5.363,5.363,0,0,1-1.368-.114A2.471,2.471,0,0,1,18,28.32a2.555,2.555,0,0,1,1.659-2.451,4.348,4.348,0,0,1,1.355-.2q16.34-.014,32.678,0c2.142,0,3.392,1.474,2.8,3.256a2.425,2.425,0,0,1-2.6,1.678q-8.294.009-16.587,0" transform="translate(3.363 4.796)" fill="#8cba2a"/>
      <path id="Path_40" data-name="Path 40" d="M32.368,20.073c-3.783,0-7.566.015-11.349-.018a4.226,4.226,0,0,1-1.793-.389,2.159,2.159,0,0,1-1.219-2.195,2.47,2.47,0,0,1,1.727-2.185A4.823,4.823,0,0,1,21,15.134q11.4-.014,22.8-.006c2.158,0,3.394,1.437,2.815,3.229a2.533,2.533,0,0,1-2.7,1.714c-3.848.009-7.7,0-11.546,0" transform="translate(3.364 2.826)" fill="#8cba2a"/>
      <path id="Path_41" data-name="Path 41" d="M27.466,4.6c2.2,0,4.407-.009,6.61,0,1.678.008,2.812.983,2.806,2.377a2.558,2.558,0,0,1-2.8,2.551c-4.407.025-8.813.012-13.219.007a2.713,2.713,0,0,1-2.613-1.444,2.259,2.259,0,0,1,.22-2.424A2.3,2.3,0,0,1,20.561,4.6c2.3.011,4.6,0,6.905,0v0" transform="translate(3.362 0.858)" fill="#8cba2a"/>
    </g>
  </g>
</svg>
