<svg xmlns="http://www.w3.org/2000/svg" xmlns:xlink="http://www.w3.org/1999/xlink" width="50.42" height="66.772" viewBox="0 0 50.42 66.772">
  <defs>
    <clipPath id="clip-path">
      <rect id="Rectangle_62" data-name="Rectangle 62" width="50.42" height="66.772" transform="translate(0 0)" fill="none"/>
    </clipPath>
  </defs>
  <g id="Group_63" data-name="Group 63" transform="translate(0 0)" clip-path="url(#clip-path)">
    <path id="Path_28" data-name="Path 28" d="M9.4,3.988c.719-.978,1.354-1.848,1.994-2.714C12.616-.382,13.986-.4,15.215,1.226c.65.862,1.28,1.74,2.034,2.768.69-.931,1.3-1.765,1.921-2.591,1.353-1.8,2.66-1.791,4.009.024.624.84,1.254,1.677,1.987,2.657.639-.884,1.2-1.667,1.772-2.449,1.521-2.1,2.759-2.1,4.326,0C31.807,2.359,32.339,3.1,33,4c.625-.855,1.174-1.6,1.718-2.353C36.3-.536,37.53-.548,39.1,1.607c.553.758,1.108,1.513,1.746,2.382.65-.871,1.209-1.618,1.765-2.368,1.566-2.112,2.692-2.129,4.346-.046A41.92,41.92,0,0,1,49.58,5a4.76,4.76,0,0,1,.8,2.386q.071,22.09.035,44.18,0,6.522,0,13.044c0,1.763-.408,2.165-2.159,2.166H2.182C.4,66.772,0,66.384,0,64.643Q0,35.926.03,7.209a4.136,4.136,0,0,1,.7-2.1c.836-1.292,1.809-2.5,2.751-3.717C4.865-.411,6.167-.392,7.5,1.422c.6.813,1.2,1.623,1.9,2.566M5.467,3.35A29.856,29.856,0,0,0,3.5,5.985a4.431,4.431,0,0,0-.7,2.094c-.038,18.2-.021,36.392-.053,54.588,0,1.056.265,1.36,1.342,1.357Q25.178,63.968,46.266,64h1.347V62.511c0-17.846-.057-35.692.064-53.536.017-2.564-1.609-3.817-2.879-5.648-.683.926-1.26,1.712-1.841,2.494-1.489,2-2.756,2-4.2.005-.582-.8-1.168-1.6-1.825-2.505-.781,1.064-1.432,1.973-2.107,2.866-1.108,1.467-2.505,1.462-3.632-.008-.674-.88-1.331-1.773-2.1-2.794-.7.971-1.308,1.818-1.926,2.656-1.349,1.827-2.668,1.826-4.016,0-.64-.866-1.276-1.734-1.977-2.687-.7.942-1.305,1.754-1.908,2.569-1.365,1.843-2.657,1.858-4.007.042-.62-.833-1.237-1.669-1.95-2.631-.728,1-1.351,1.876-2,2.734C10.068,7.707,8.731,7.7,7.48,6.046c-.648-.855-1.285-1.72-2.013-2.7" fill="#399fd7"/>
    <path id="Path_29" data-name="Path 29" d="M25.133,12.455a1.76,1.76,0,0,1,1.951,1.675c.073.841.508,1.084,1.156,1.456a13.19,13.19,0,0,1,2.878,2.227,1.907,1.907,0,1,1-2.835,2.531,4.054,4.054,0,0,0-3.641-1.537,3.143,3.143,0,0,0-2.725,2.341c-.263,1.419.773,1.936,1.759,2.364,1.483.644,3.055,1.083,4.53,1.744,2.315,1.037,4.184,2.595,4.184,5.361a6.444,6.444,0,0,1-4.178,6.212A1.587,1.587,0,0,0,27.067,38.3,1.716,1.716,0,0,1,25.118,39.9a1.676,1.676,0,0,1-1.769-1.633c-.052-.91-.538-1.186-1.288-1.516a25.77,25.77,0,0,1-3.849-2.111,1.777,1.777,0,0,1-.557-2.791c.809-1.031,1.785-.917,2.878-.281a18.411,18.411,0,0,0,3.824,1.792,3.409,3.409,0,0,0,2.526-.251,3.58,3.58,0,0,0,1.575-2.256c.065-.578-.831-1.509-1.515-1.873A42.752,42.752,0,0,0,22.7,27.309c-2.506-1-4.617-2.5-4.689-5.457-.075-3.046,1.547-5.159,4.318-6.444a2.124,2.124,0,0,0,.948-1.259c.285-1.031.8-1.656,1.851-1.694" fill="#8bba29"/>
    <path id="Path_30" data-name="Path 30" d="M19.562,44.443c3.191,0,6.382-.037,9.571.038a2.154,2.154,0,0,1,1.51.823,1.211,1.211,0,0,1-.869,1.785,4.707,4.707,0,0,1-1.146.095q-9.047.008-18.092,0a6.216,6.216,0,0,1-.736-.017c-.83-.1-1.415-.5-1.376-1.408a1.3,1.3,0,0,1,1.46-1.315c1.3-.013,2.6,0,3.892,0h5.786" fill="#8bba29"/>
    <path id="Path_31" data-name="Path 31" d="M19.583,52.86c3.155,0,6.311-.025,9.466.026a2.246,2.246,0,0,1,1.462.582,1.258,1.258,0,0,1-.654,2.017,3.6,3.6,0,0,1-1.038.114q-9.2.009-18.408,0a4.373,4.373,0,0,1-.734-.029A1.288,1.288,0,0,1,8.424,54.16,1.269,1.269,0,0,1,9.8,52.872c1.542-.028,3.085-.011,4.627-.012h5.156" fill="#8bba29"/>
    <path id="Path_32" data-name="Path 32" d="M39.279,52.871c.491,0,.985-.036,1.472.007.771.068,1.337.576,1.237,1.285a1.817,1.817,0,0,1-1.044,1.313A14.175,14.175,0,0,1,37.5,55.5a1.146,1.146,0,0,1-1-1.383,1.228,1.228,0,0,1,1.2-1.233c.522-.046,1.051-.009,1.577-.01" fill="#8bba29"/>
    <path id="Path_33" data-name="Path 33" d="M39.287,44.448c.456,0,.912-.018,1.367,0a1.3,1.3,0,0,1,1.369,1.31,1.218,1.218,0,0,1-1.182,1.361,20.806,20.806,0,0,1-3.148.013A1.222,1.222,0,0,1,36.5,45.687a1.243,1.243,0,0,1,1.311-1.234c.49-.022.981,0,1.472,0" fill="#8bba29"/>
  </g>
</svg>
