<svg xmlns="http://www.w3.org/2000/svg" xmlns:xlink="http://www.w3.org/1999/xlink" width="125.204" height="86.058" viewBox="0 0 125.204 86.058">
  <defs>
    <clipPath id="clip-path">
      <path id="Path_14" data-name="Path 14" d="M0,0H125.2V86.058H0Z" transform="translate(0 0)" fill="#55aee0"/>
    </clipPath>
  </defs>
  <g id="Group_29" data-name="Group 29" transform="translate(0 0)">
    <g id="Mask_Group_2" data-name="Mask Group 2" clip-path="url(#clip-path)">
      <path id="Path_12" data-name="Path 12" d="M7.824,78.226h2.4l109.348,0c.326,0,.652,0,.978,0,2.775.031,4.646,1.622,4.626,3.933s-1.873,3.891-4.672,3.891q-58,.009-116,0C1.457,86.051,0,84.542,0,81.445Q0,43.017,0,4.588C0,1.772,1.549-.014,3.93,0,6.293.014,7.819,1.8,7.819,4.642q.011,35.5.005,70.991v2.593" fill="#55aee0"/>
      <path id="Path_13" data-name="Path 13" d="M108.243,11.207c-4.863,1.847-9.161,3.509-13.486,5.1a7.357,7.357,0,0,1-2.835.525,3.861,3.861,0,0,1-3.364-3.322,3.956,3.956,0,0,1,2.6-4.143c4.664-1.835,9.35-3.617,14.029-5.415,2.857-1.1,5.721-2.174,8.573-3.283,3.72-1.445,5.768-.392,6.568,3.458q2.4,11.568,4.76,23.147c.518,2.545-.741,4.637-3.012,5.1s-4.189-.992-4.713-3.547c-.831-4.05-1.668-8.1-2.6-12.608-.566.841-.91,1.275-1.172,1.754-13.908,25.4-35.16,41.371-62.912,49.014a104.484,104.484,0,0,1-27.414,3.741,33.089,33.089,0,0,1-4.289-.284,3.824,3.824,0,0,1-.121-7.565,23.806,23.806,0,0,1,3.5-.022,100.315,100.315,0,0,0,36.123-6.629c21.4-8.04,37.418-22.26,48.353-42.276.4-.735.764-1.492,1.4-2.746" fill="#8ec63d"/>
    </g>
  </g>
</svg>
