<svg xmlns="http://www.w3.org/2000/svg" xmlns:xlink="http://www.w3.org/1999/xlink" width="60" height="53.466" viewBox="0 0 60 53.466">
  <defs>
    <clipPath id="clip-path">
      <rect id="Rectangle_61" data-name="Rectangle 61" width="60" height="53.466" fill="none"/>
    </clipPath>
  </defs>
  <g id="Group_60" data-name="Group 60" transform="translate(0 0)">
    <g id="Group_59" data-name="Group 59" transform="translate(0 0)" clip-path="url(#clip-path)">
      <path id="Path_26" data-name="Path 26" d="M30.283,50.011q-13.425,0-26.849,0c-1.861,0-2.763-1.342-1.895-2.978.2-.381,1.012-.6,1.551-.618,2.99-.081,2.948.476,2.938-3.081-.009-3.137.03-6.275-.016-9.412-.019-1.22.347-1.771,1.674-1.734,2.775.077,5.555.012,8.332.024,1.871.006,2.074.217,2.08,2.176.012,3.344.059,6.688-.014,10.03-.031,1.46.455,2,1.955,1.995,4.464-.017,4.464.034,4.464-4.5q0-8.409,0-16.819c0-2.107.011-2.109,2.168-2.11,2.624,0,5.249.062,7.869-.024,1.51-.049,1.984.579,1.975,2.007-.042,6.377-.028,12.756-.026,19.134,0,2.162.12,2.294,2.27,2.277,4.944-.036,4.185.549,4.2-4.129.037-8.795.009-17.591.014-26.386,0-2.065.034-2.092,2.052-2.1q3.936-.011,7.87,0c1.807.006,2.009.2,2.01,2.066q.011,13.965.005,27.93c0,2.59,0,2.591,2.564,2.619,1.856.02,2.729,1.24,1.915,2.9a2.141,2.141,0,0,1-1.644.707c-5.3.054-10.6.033-15.893.033H30.283Zm16.41-18.09H46.7c0,4.21.056,8.421-.028,12.629-.034,1.743.892,1.886,2.24,1.849,2.129-.057,2.359-.171,2.361-1.893q.017-12.63,0-25.259c0-1.687-.155-1.72-2.405-1.79-1.355-.043-2.246.081-2.2,1.835.1,4.208.031,8.419.031,12.629M28.261,36.385c0,2.674-.009,5.347,0,8.021.008,1.865.12,1.962,2.053,1.969,2.347.006,2.52-.116,2.524-2.026q.015-7.714,0-15.425c0-2.186-.028-2.2-2.267-2.208a6.877,6.877,0,0,1-.77,0c-1.131-.127-1.571.364-1.554,1.5.044,2.725.015,5.45.011,8.175M9.814,41.077H9.8c0,1.179.056,2.361-.015,3.535-.081,1.322.42,1.928,1.774,1.777a11.329,11.329,0,0,1,1.383-.016c1.026.016,1.482-.473,1.467-1.507-.029-1.946.017-3.9-.01-5.842-.045-3.258.587-3.071-3.18-3.061-.1,0-.246-.04-.3.013-.377.357-1.012.706-1.054,1.11a39.709,39.709,0,0,0-.05,3.993" transform="translate(0.302 3.44)" fill="#399fd7"/>
      <path id="Path_27" data-name="Path 27" d="M42.725,3.864c-.787-.043-1.575-.095-2.362-.126-1.688-.067-2.5-.666-2.509-1.87C37.845.629,38.621.024,40.31.016,43.8,0,47.3-.008,50.795.01c2.436.012,3.178,1.267,1.961,3.333-1.744,2.957-3.52,5.9-5.3,8.835-.624,1.033-1.375,1.881-2.729,1.138-1.044-.573-1.17-1.736-.392-3.105.429-.754.869-1.5,1.279-2.264.058-.108-.021-.289-.067-.712-2.033,1.051-3.968,2.027-5.88,3.045Q21.426,19.982,3.189,29.7c-1.33.707-2.466.53-2.969-.438-.542-1.048-.064-2.166,1.266-2.872Q21.363,15.823,41.241,5.265c.531-.282,1.033-.624,1.546-.939-.02-.154-.041-.309-.062-.462" transform="translate(0 0)" fill="#8bba29"/>
    </g>
  </g>
</svg>
