<svg id="Logistics" xmlns="http://www.w3.org/2000/svg" width="146.906" height="81.365" viewBox="0 0 146.906 81.365">
  <path id="Exclusion_1" data-name="Exclusion 1" d="M77.73,81.365a12.972,12.972,0,0,1-9.7-4.462,16.065,16.065,0,0,1-4.012-10.793H36.579A16.066,16.066,0,0,1,32.567,76.9a12.785,12.785,0,0,1-19.41,0A16.065,16.065,0,0,1,9.144,66.109H0V10.17A10.7,10.7,0,0,1,2.686,2.988,8.644,8.644,0,0,1,9.144,0H73.158V20.341H86.875l13.717,20.341V66.109H91.447A16.066,16.066,0,0,1,87.435,76.9,12.973,12.973,0,0,1,77.73,81.365Zm0-22.884c-3.782,0-6.858,3.422-6.858,7.629s3.077,7.628,6.858,7.628,6.859-3.422,6.859-7.628S81.512,58.481,77.73,58.481Zm-54.868,0C19.08,58.481,16,61.9,16,66.109s3.077,7.628,6.858,7.628,6.858-3.422,6.858-7.628S26.644,58.481,22.862,58.481ZM6.589,8.848V51.9H67.533V8.848ZM73.158,27.969V40.683H93.55L84.589,27.969Z" transform="translate(46.314)" fill="#399fd7"/>
  <path id="Line_35" data-name="Line 35" d="M31.285,4H-1.058C-2.683,4-4,2.209-4,0s1.317-4,2.942-4H31.285c1.625,0,2.942,1.791,2.942,4S32.91,4,31.285,4Z" transform="translate(4 55.104)" fill="#8bba29"/>
  <path id="Line_36" data-name="Line 36" d="M25.182,4H-1.078C-2.692,4-4,2.209-4,0s1.308-4,2.922-4h26.26C26.8-4,28.1-2.209,28.1,0S26.8,4,25.182,4Z" transform="translate(10.123 35.869)" fill="#8bba29"/>
  <path id="Line_37" data-name="Line 37" d="M15.345,4H-1.739C-2.988,4-4,2.209-4,0s1.012-4,2.261-4H15.345c1.249,0,2.261,1.791,2.261,4S16.594,4,15.345,4Z" transform="translate(20.621 14.802)" fill="#8bba29"/>
</svg>
