<svg id="Purchase" xmlns="http://www.w3.org/2000/svg" xmlns:xlink="http://www.w3.org/1999/xlink" width="95.097" height="106.466" viewBox="0 0 95.097 106.466">
  <defs>
    <clipPath id="clip-path">
      <rect id="Rectangle_62" data-name="Rectangle 62" width="95.097" height="106.466" fill="none" stroke="#8bba29" stroke-width="2"/>
    </clipPath>
  </defs>
  <g id="Group_63" data-name="Group 63" clip-path="url(#clip-path)">
    <path id="Path_28" data-name="Path 28" d="M17.726,6.359c1.356-1.559,2.554-2.947,3.761-4.327C23.8-.609,26.379-.643,28.7,1.955c1.226,1.374,2.414,2.774,3.836,4.414,1.3-1.484,2.452-2.814,3.623-4.131,2.552-2.872,5.017-2.856,7.561.038,1.177,1.339,2.365,2.674,3.748,4.237,1.205-1.41,2.273-2.658,3.342-3.9,2.869-3.348,5.2-3.353,8.159,0,1.024,1.159,2.028,2.333,3.28,3.777,1.179-1.363,2.214-2.554,3.24-3.752,2.986-3.482,5.3-3.5,8.267-.065,1.043,1.209,2.09,2.412,3.293,3.8,1.226-1.389,2.28-2.58,3.329-3.776,2.954-3.368,5.077-3.395,8.2-.073a69.46,69.46,0,0,1,4.94,5.455,6.843,6.843,0,0,1,1.515,3.8c.089,23.482.066,46.964.066,70.444q0,10.4-.006,20.8c0,2.811-.77,3.452-4.072,3.454H4.116c-3.361,0-4.114-.619-4.114-3.395Q0,57.282.057,11.494a5.937,5.937,0,0,1,1.311-3.35c1.577-2.06,3.412-3.98,5.189-5.927,2.62-2.873,5.075-2.843,7.592.049,1.128,1.3,2.263,2.588,3.578,4.091M10.311,5.341a49.133,49.133,0,0,0-3.706,4.2,6.363,6.363,0,0,0-1.324,3.339c-.072,29.013-.04,58.026-.1,87.039,0,1.684.5,2.168,2.531,2.164q39.775-.088,79.55-.038H89.8V99.672c0-28.455-.107-56.91.121-85.362.032-4.088-3.035-6.086-5.43-9.006-1.288,1.476-2.376,2.73-3.472,3.977-2.808,3.194-5.2,3.194-7.925.008-1.1-1.28-2.2-2.556-3.442-3.994-1.473,1.7-2.7,3.146-3.974,4.57-2.09,2.339-4.725,2.331-6.85-.013-1.271-1.4-2.51-2.827-3.953-4.455-1.326,1.548-2.467,2.9-3.633,4.235-2.544,2.913-5.032,2.912-7.575,0-1.207-1.381-2.407-2.765-3.729-4.284-1.32,1.5-2.461,2.8-3.6,4.1-2.575,2.939-5.011,2.963-7.558.067-1.169-1.328-2.333-2.661-3.678-4.2C23.733,6.91,22.558,8.312,21.33,9.68c-2.341,2.609-4.862,2.591-7.222-.04-1.222-1.363-2.424-2.742-3.8-4.3" transform="translate(0 0.001)" fill="#399fd7"/>
    <path id="Path_29" data-name="Path 29" d="M32.168,12.455c2.214.026,3.51,1.008,3.68,2.671.138,1.341.958,1.728,2.18,2.322A24.824,24.824,0,0,1,43.457,21c1.722,1.5,1.522,3.46-.179,4.549a3.856,3.856,0,0,1-5.168-.513,8.344,8.344,0,0,0-6.867-2.451c-2.452.191-4.728,1.866-5.14,3.733-.5,2.263,1.458,3.087,3.318,3.769,2.8,1.027,5.762,1.727,8.544,2.781,4.366,1.653,7.891,4.138,7.891,8.548,0,4.653-2.812,8.017-7.88,9.9-1.3.485-2.011,1.016-2.16,2.342-.189,1.689-1.639,2.637-3.676,2.561-1.88-.069-3.225-.966-3.336-2.6-.1-1.451-1.015-1.891-2.429-2.417a51.882,51.882,0,0,1-7.26-3.366c-1.916-1.079-2.639-2.738-1.051-4.45,1.526-1.644,3.367-1.462,5.428-.448A37.925,37.925,0,0,0,30.7,45.794a7.5,7.5,0,0,0,4.764-.4,5.811,5.811,0,0,0,2.971-3.6c.123-.922-1.567-2.406-2.857-2.986-2.514-1.13-5.33-1.768-7.993-2.671-4.727-1.6-8.708-3.989-8.844-8.7-.141-4.857,2.918-8.226,8.144-10.275a3.515,3.515,0,0,0,1.788-2.007,3.441,3.441,0,0,1,3.491-2.7" transform="translate(15.235 7.405)" fill="#8bba29" stroke="#8bba29" stroke-width="2"/>
    <path id="Path_30" data-name="Path 30" d="M29.433,44.448c6.019,0,12.037-.059,18.052.061a4.306,4.306,0,0,1,2.848,1.312c.881,1.091-.066,2.51-1.639,2.846a10.458,10.458,0,0,1-2.161.151l-7.536,0c-8.662,0-17.625,0-26.587,0a13.861,13.861,0,0,1-1.388-.027c-1.565-.161-2.669-.8-2.6-2.245.072-1.41,1.134-2.082,2.754-2.1,2.448-.021,4.894-.006,7.341-.006q5.457,0,10.913,0" transform="translate(7.463 26.416)" fill="#8bba29" stroke="#8bba29" stroke-width="2"/>
    <path id="Path_31" data-name="Path 31" d="M29.474,52.864c5.951,0,11.9-.04,17.854.041a4.682,4.682,0,0,1,2.757.928c1.177,1.041.424,2.782-1.234,3.216a7.972,7.972,0,0,1-1.958.182q-17.357.014-34.719,0a9.745,9.745,0,0,1-1.384-.046c-1.486-.215-2.456-.9-2.363-2.253.091-1.32,1.062-2.031,2.6-2.054,2.908-.045,5.819-.018,8.727-.019q4.863,0,9.725,0" transform="translate(7.462 31.421)" fill="#8bba29" stroke="#8bba29" stroke-width="2"/>
    <path id="Path_32" data-name="Path 32" d="M41.747,52.88c.926,0,1.858-.057,2.776.011,1.454.108,2.522.918,2.333,2.049a3.054,3.054,0,0,1-1.969,2.094,31.591,31.591,0,0,1-6.5.033,1.9,1.9,0,0,1-1.884-2.205A2.148,2.148,0,0,1,38.772,52.9c.985-.073,1.982-.014,2.974-.016" transform="translate(32.337 31.422)" fill="#8bba29" stroke="#8bba29" stroke-width="2"/>
    <path id="Path_33" data-name="Path 33" d="M41.759,44.452c.86,0,1.72-.029,2.578,0,1.564.059,2.5.826,2.582,2.089.081,1.213-.805,2.076-2.229,2.17a46.4,46.4,0,0,1-5.937.021c-1.53-.1-2.367-.985-2.243-2.309.115-1.229,1-1.912,2.473-1.968.924-.035,1.85-.006,2.776-.008" transform="translate(32.34 26.419)" fill="#8bba29" stroke="#8bba29" stroke-width="2"/>
  </g>
</svg>
