<svg id="Sales" xmlns="http://www.w3.org/2000/svg" width="95.097" height="118.635" viewBox="0 0 95.097 118.635">
  <path id="Icon_material-add-shopping-cart" data-name="Icon material-add-shopping-cart" d="M25.593,68.586a8.031,8.031,0,1,0,8.031,8.031A8.02,8.02,0,0,0,25.593,68.586Zm54.3,0a8.031,8.031,0,1,0,8.031,8.031A8.02,8.02,0,0,0,79.892,68.586ZM26.275,55.536l.12-.482,3.614-6.545H74.07A7.993,7.993,0,0,0,81.1,44.373L96.6,16.224,89.61,12.37h-.04L85.153,20.4,76.585,35.922,74.07,40.478H31.736l-.522-1.084L22.22,20.4,18.405,12.37,14.631,4.339H1.5V12.37H9.531L23.987,42.847l-5.421,9.838a7.764,7.764,0,0,0-1,3.855,8.055,8.055,0,0,0,8.031,8.031H87.923V56.54H27.279A1.02,1.02,0,0,1,26.275,55.536Z" transform="translate(-1.5 33.987)" fill="#8bba29"/>
  <path id="Path_69" data-name="Path 69" d="M26.495,70.776v2.688c0,35.232,0-.261.008,34.971a19.506,19.506,0,0,0,.15,3.231,5.635,5.635,0,0,0,5.783,4.942,5.8,5.8,0,0,0,5.619-5.44c.095-1.075.058-2.162.058-3.242,0-35.079,0,.57,0-34.506V70c1.123,1.05,1.719,1.577,2.281,2.137,5.087,5.075,5.879,4.543,11.019,9.562,3.4,3.323,8.348,2.346,9.8-1.844a5.5,5.5,0,0,0-1.309-6.009C50.7,64.592,45.732,61,36.45,51.818a5.683,5.683,0,0,0-8.337.006C18.834,61.007,13.854,64.589,4.679,73.876A5.773,5.773,0,0,0,4.7,82.033a5.964,5.964,0,0,0,8.351-.2c5.184-5.087,6.049-4.59,11.192-9.716.535-.535,1.1-1.036,1.657-1.552.2.07.4.142.6.212" transform="translate(19.494 -50)" fill="#399fd7"/>
</svg>
